<?xml version="1.0" encoding="utf-8"?>
<!-- Svg Vector Icons : http://www.sfont.cn -->
<!DOCTYPE svg PUBLIC "-//W3C//DTD SVG 1.1//EN" "http://www.w3.org/Graphics/SVG/1.1/DTD/svg11.dtd">
<svg version="1.1" xmlns="http://www.w3.org/2000/svg" xmlns:xlink="http://www.w3.org/1999/xlink" x="0px" y="0px" viewBox="0 0 1000 1000" enable-background="new 0 0 1000 1000" xml:space="preserve">
<metadata> Svg Vector Icons : http://www.sfont.cn </metadata>
<g><path d="M500,990c270.6,0,490-219.4,490-490c0-270.6-219.4-490-490-490C229.4,10,10,229.4,10,500C10,770.6,229.4,990,500,990L500,990z M500,101.9c219.9,0,398.1,178.3,398.1,398.1c0,219.9-178.2,398.1-398.1,398.1c-219.9,0-398.1-178.2-398.1-398.1C101.9,280.1,280.1,101.9,500,101.9L500,101.9z M437.7,230.6h124.6v124.6H437.7V230.6L437.7,230.6z M437.7,457.8h124.6v311.6H437.7V457.8L437.7,457.8z"/></g>
</svg>